G04 #@! TF.GenerationSoftware,KiCad,Pcbnew,(6.0.1)*
G04 #@! TF.CreationDate,2022-02-26T15:30:00+09:00*
G04 #@! TF.ProjectId,xbee-gyro20220207,78626565-2d67-4797-926f-323032323032,V1.1*
G04 #@! TF.SameCoordinates,Original*
G04 #@! TF.FileFunction,Soldermask,Top*
G04 #@! TF.FilePolarity,Negative*
%FSLAX46Y46*%
G04 Gerber Fmt 4.6, Leading zero omitted, Abs format (unit mm)*
G04 Created by KiCad (PCBNEW (6.0.1)) date 2022-02-26 15:30:00*
%MOMM*%
%LPD*%
G01*
G04 APERTURE LIST*
G04 Aperture macros list*
%AMRoundRect*
0 Rectangle with rounded corners*
0 $1 Rounding radius*
0 $2 $3 $4 $5 $6 $7 $8 $9 X,Y pos of 4 corners*
0 Add a 4 corners polygon primitive as box body*
4,1,4,$2,$3,$4,$5,$6,$7,$8,$9,$2,$3,0*
0 Add four circle primitives for the rounded corners*
1,1,$1+$1,$2,$3*
1,1,$1+$1,$4,$5*
1,1,$1+$1,$6,$7*
1,1,$1+$1,$8,$9*
0 Add four rect primitives between the rounded corners*
20,1,$1+$1,$2,$3,$4,$5,0*
20,1,$1+$1,$4,$5,$6,$7,0*
20,1,$1+$1,$6,$7,$8,$9,0*
20,1,$1+$1,$8,$9,$2,$3,0*%
%AMHorizOval*
0 Thick line with rounded ends*
0 $1 width*
0 $2 $3 position (X,Y) of the first rounded end (center of the circle)*
0 $4 $5 position (X,Y) of the second rounded end (center of the circle)*
0 Add line between two ends*
20,1,$1,$2,$3,$4,$5,0*
0 Add two circle primitives to create the rounded ends*
1,1,$1,$2,$3*
1,1,$1,$4,$5*%
%AMRotRect*
0 Rectangle, with rotation*
0 The origin of the aperture is its center*
0 $1 length*
0 $2 width*
0 $3 Rotation angle, in degrees counterclockwise*
0 Add horizontal line*
21,1,$1,$2,0,0,$3*%
%AMFreePoly0*
4,1,9,3.862500,-0.866500,0.737500,-0.866500,0.737500,-0.450000,-0.737500,-0.450000,-0.737500,0.450000,0.737500,0.450000,0.737500,0.866500,3.862500,0.866500,3.862500,-0.866500,3.862500,-0.866500,$1*%
G04 Aperture macros list end*
%ADD10RoundRect,0.237500X0.237500X-0.287500X0.237500X0.287500X-0.237500X0.287500X-0.237500X-0.287500X0*%
%ADD11RoundRect,0.237500X0.237500X-0.250000X0.237500X0.250000X-0.237500X0.250000X-0.237500X-0.250000X0*%
%ADD12C,1.612800*%
%ADD13RotRect,1.700000X1.700000X45.000000*%
%ADD14HorizOval,1.700000X0.000000X0.000000X0.000000X0.000000X0*%
%ADD15RoundRect,0.237500X0.250000X0.237500X-0.250000X0.237500X-0.250000X-0.237500X0.250000X-0.237500X0*%
%ADD16R,0.900000X1.300000*%
%ADD17FreePoly0,270.000000*%
%ADD18RoundRect,0.237500X-0.237500X0.250000X-0.237500X-0.250000X0.237500X-0.250000X0.237500X0.250000X0*%
%ADD19RoundRect,0.237500X0.237500X-0.300000X0.237500X0.300000X-0.237500X0.300000X-0.237500X-0.300000X0*%
%ADD20RotRect,1.700000X1.700000X135.000000*%
%ADD21HorizOval,1.700000X0.000000X0.000000X0.000000X0.000000X0*%
%ADD22C,0.750000*%
%ADD23R,1.700000X1.700000*%
%ADD24O,1.700000X1.700000*%
%ADD25C,0.800000*%
G04 APERTURE END LIST*
D10*
X48000000Y-102875000D03*
X48000000Y-101125000D03*
D11*
X87000000Y-99912500D03*
X87000000Y-98087500D03*
D12*
X100000000Y-104000000D03*
X98000000Y-104000000D03*
X96000000Y-104000000D03*
X94000000Y-104000000D03*
X92000000Y-104000000D03*
X90000000Y-104000000D03*
X88000000Y-104000000D03*
X86000000Y-104000000D03*
X84000000Y-104000000D03*
X82000000Y-104000000D03*
X82000000Y-126000000D03*
X84000000Y-126000000D03*
X86000000Y-126000000D03*
X88000000Y-126000000D03*
X90000000Y-126000000D03*
X92000000Y-126000000D03*
X94000000Y-126000000D03*
X96000000Y-126000000D03*
X98000000Y-126000000D03*
X100000000Y-126000000D03*
D11*
X51000000Y-98912500D03*
X51000000Y-97087500D03*
D13*
X72407900Y-135407900D03*
D14*
X74203951Y-137203951D03*
X76000002Y-139000002D03*
X77796054Y-140796054D03*
X79592105Y-142592105D03*
D15*
X99912500Y-107000000D03*
X98087500Y-107000000D03*
D11*
X91000000Y-99912500D03*
X91000000Y-98087500D03*
D16*
X100500000Y-111350000D03*
D17*
X99000000Y-111437500D03*
D16*
X97500000Y-111350000D03*
D18*
X47000000Y-120087500D03*
X47000000Y-121912500D03*
D10*
X48000000Y-98875000D03*
X48000000Y-97125000D03*
D11*
X51000000Y-102912500D03*
X51000000Y-101087500D03*
D19*
X82000000Y-108862500D03*
X82000000Y-107137500D03*
D20*
X74200000Y-92669300D03*
D21*
X75996051Y-90873249D03*
X77792102Y-89077198D03*
X79588154Y-87281146D03*
D11*
X46000000Y-109912500D03*
X46000000Y-108087500D03*
D10*
X47000000Y-125875000D03*
X47000000Y-124125000D03*
D22*
X48375000Y-115000000D03*
X45625000Y-115000000D03*
D23*
X55025000Y-121050000D03*
D24*
X55025000Y-118510000D03*
X55025000Y-115970000D03*
X55025000Y-113430000D03*
X55025000Y-110890000D03*
D25*
X79451000Y-108982300D03*
X79715800Y-111350000D03*
X80726400Y-110479300D03*
X48000000Y-104044400D03*
X45913400Y-122643200D03*
X78551600Y-136013900D03*
X56478000Y-112071100D03*
X46859800Y-108947300D03*
X81056300Y-107965900D03*
M02*
