G04 #@! TF.GenerationSoftware,KiCad,Pcbnew,(6.0.1)*
G04 #@! TF.CreationDate,2022-02-26T15:30:00+09:00*
G04 #@! TF.ProjectId,xbee-gyro20220207,78626565-2d67-4797-926f-323032323032,V1.1*
G04 #@! TF.SameCoordinates,Original*
G04 #@! TF.FileFunction,Soldermask,Bot*
G04 #@! TF.FilePolarity,Negative*
%FSLAX46Y46*%
G04 Gerber Fmt 4.6, Leading zero omitted, Abs format (unit mm)*
G04 Created by KiCad (PCBNEW (6.0.1)) date 2022-02-26 15:30:00*
%MOMM*%
%LPD*%
G01*
G04 APERTURE LIST*
G04 Aperture macros list*
%AMHorizOval*
0 Thick line with rounded ends*
0 $1 width*
0 $2 $3 position (X,Y) of the first rounded end (center of the circle)*
0 $4 $5 position (X,Y) of the second rounded end (center of the circle)*
0 Add line between two ends*
20,1,$1,$2,$3,$4,$5,0*
0 Add two circle primitives to create the rounded ends*
1,1,$1,$2,$3*
1,1,$1,$4,$5*%
%AMRotRect*
0 Rectangle, with rotation*
0 The origin of the aperture is its center*
0 $1 length*
0 $2 width*
0 $3 Rotation angle, in degrees counterclockwise*
0 Add horizontal line*
21,1,$1,$2,0,0,$3*%
G04 Aperture macros list end*
%ADD10C,1.612800*%
%ADD11RotRect,1.700000X1.700000X45.000000*%
%ADD12HorizOval,1.700000X0.000000X0.000000X0.000000X0.000000X0*%
%ADD13RotRect,1.700000X1.700000X135.000000*%
%ADD14HorizOval,1.700000X0.000000X0.000000X0.000000X0.000000X0*%
%ADD15C,0.750000*%
%ADD16R,1.000000X1.550000*%
%ADD17R,1.700000X1.700000*%
%ADD18O,1.700000X1.700000*%
%ADD19C,0.800000*%
G04 APERTURE END LIST*
D10*
X100000000Y-104000000D03*
X98000000Y-104000000D03*
X96000000Y-104000000D03*
X94000000Y-104000000D03*
X92000000Y-104000000D03*
X90000000Y-104000000D03*
X88000000Y-104000000D03*
X86000000Y-104000000D03*
X84000000Y-104000000D03*
X82000000Y-104000000D03*
X82000000Y-126000000D03*
X84000000Y-126000000D03*
X86000000Y-126000000D03*
X88000000Y-126000000D03*
X90000000Y-126000000D03*
X92000000Y-126000000D03*
X94000000Y-126000000D03*
X96000000Y-126000000D03*
X98000000Y-126000000D03*
X100000000Y-126000000D03*
D11*
X72407900Y-135407900D03*
D12*
X74203951Y-137203951D03*
X76000002Y-139000002D03*
X77796054Y-140796054D03*
X79592105Y-142592105D03*
D13*
X74200000Y-92669300D03*
D14*
X75996051Y-90873249D03*
X77792102Y-89077198D03*
X79588154Y-87281146D03*
D15*
X48375000Y-115000000D03*
X45625000Y-115000000D03*
D16*
X46150000Y-117625000D03*
X46150000Y-112375000D03*
X47850000Y-112375000D03*
X47850000Y-117625000D03*
D17*
X55025000Y-121050000D03*
D18*
X55025000Y-118510000D03*
X55025000Y-115970000D03*
X55025000Y-113430000D03*
X55025000Y-110890000D03*
D19*
X79451000Y-108982300D03*
X79715800Y-111350000D03*
X80726400Y-110479300D03*
X48000000Y-104044400D03*
X45913400Y-122643200D03*
X78551600Y-136013900D03*
X56478000Y-112071100D03*
X46859800Y-108947300D03*
X81056300Y-107965900D03*
M02*
